#!OML:ASF X:\für Bonn\!DataBase\2005_08_12_Daniel\c3d\Daniel.ASF
:FULLY-SPECIFIED
:DEGREES
145
root 2.57733 17.6286 17.1722 -5.38153 17.0163 -1.4588
lowerback 8.31397 3.11007 4.7179
upperback 0.0745498 4.38231 -5.64986
thorax -3.78216 2.06563 -9.14298
lowerneck 3.08925 -7.04687 -3.56819
upperneck 17.1288 -10.24 5.86386
head 5.13781 -4.89632 2.02215
rclavicle 2.77864e-014 4.77083e-015
rhumerus 67.4853 -23.0126 -94.8252
rradius 10.0703
rwrist 61.8814
rhand -6.58047 9.5663
rfingers 7.12502
rthumb 19.2743 -19.4985
lclavicle 2.77864e-014 4.77083e-015
lhumerus -41.2669 47.4609 51.8934
lradius 15.1086
lwrist -50.0494
lhand -11.0303 -5.76889
lfingers 7.12502
lthumb 14.9913 23.6685
rfemur 10.6841 14.8908 23.4678
rtibia 12.4505
rfoot -25.062 -26.9743
rtoes -11.8093
lfemur -3.02742 -18.8621 -16.4261
ltibia 29.7028
lfoot -21.7772 1.57333
ltoes -15.9958
146
root 2.57823 17.6283 17.1728 -5.39268 16.9524 -1.47051
lowerback 8.28997 3.08348 4.67059
upperback 0.0797315 4.34243 -5.61835
thorax -3.77674 2.04687 -9.07498
lowerneck 3.09244 -7.02749 -3.57542
upperneck 17.2227 -10.2133 5.82753
head 5.16367 -4.88391 2.01236
rclavicle -1.98816e-014 -6.52014e-014
rhumerus 66.274 -22.1012 -92.133
rradius 10.3058
rwrist 58.9554
rhand -7.07741 9.64096
rfingers 7.12502
rthumb 18.7964 -19.4709
lclavicle -1.98816e-014 -6.52014e-014
lhumerus -41.4664 47.5423 51.7029
lradius 15.1026
lwrist -50.2343
lhand -11.0026 -5.70252
lfingers 7.12502
lthumb 15.018 23.7328
rfemur 10.6885 14.9091 23.4753
rtibia 12.4454
rfoot -25.0287 -26.9408
rtoes -11.8154
lfemur -3.00063 -18.8404 -16.4242
ltibia 29.7109
lfoot -21.7974 1.61358
ltoes -15.9961
147
root 2.57845 17.6281 17.1728 -5.39731 16.9005 -1.47259
lowerback 8.25511 3.05463 4.60927
upperback 0.103762 4.29844 -5.58363
thorax -3.74731 2.02799 -8.99297
lowerneck 3.02263 -7.01364 -3.6174
upperneck 17.3452 -10.1977 5.81105
head 5.21386 -4.87595 2.01027
rclavicle 1.13167e-013 -3.97569e-014
rhumerus 65.0694 -21.0789 -89.2826
rradius 10.5753
rwrist 55.8577
rhand -7.58703 9.68613
rfingers 7.12502
rthumb 18.3062 -19.4725
lclavicle 1.13167e-013 -3.97569e-014
lhumerus -41.7569 47.8516 51.3543
lradius 15.0671
lwrist -50.6909
lhand -10.9641 -5.70615
lfingers 7.12502
lthumb 15.055 23.7264
rfemur 10.6917 14.9582 23.4863
rtibia 12.4408
rfoot -25.0198 -26.9417
rtoes -11.8115
lfemur -2.99469 -18.7822 -16.4158
ltibia 29.72
lfoot -21.8059 1.60494
ltoes -15.9946
148
root 2.57918 17.6276 17.173 -5.41596 16.8174 -1.48457
lowerback 8.22069 3.03085 4.55103
upperback 0.133694 4.26204 -5.5379
thorax -3.71099 2.01334 -8.90119
lowerneck 2.96741 -6.99611 -3.6495
upperneck 17.4544 -10.174 5.77818
head 5.25582 -4.86496 2.00276
rclavicle 4.19746e-014 -2.8625e-014
rhumerus 63.9387 -20.0165 -86.5377
rradius 10.8967
rwrist 52.8445
rhand -8.10625 9.75388
rfingers 7.12502
rthumb 17.8066 -19.4509
lclavicle 4.19746e-014 -2.8625e-014
lhumerus -42.0681 48.1791 50.9956
lradius 15.0408
lwrist -51.1749
lhand -10.9428 -5.72797
lfingers 7.12502
lthumb 15.0756 23.7031
rfemur 10.7047 15.0365 23.5132
rtibia 12.4423
rfoot -25.0104 -26.9446
rtoes -11.8169
lfemur -2.95658 -18.7345 -16.4074
ltibia 29.7246
lfoot -21.8279 1.62113
ltoes -15.9487
149
root 2.58055 17.6276 17.172 -5.4195 16.7079 -1.48378
lowerback 8.19306 3.01354 4.49526
upperback 0.154376 4.23417 -5.50461
thorax -3.68541 2.00209 -8.82641
lowerneck 2.93286 -6.97634 -3.6798
upperneck 17.5412 -10.1494 5.76612
head 5.28822 -4.85323 2.00258
rclavicle -1.01977e-013 3.49861e-014
rhumerus 62.9084 -18.9965 -84.0461
rradius 11.3005
rwrist 50.0859
rhand -8.53721 9.82839
rfingers 7.12502
rthumb 17.3919 -19.4135
lclavicle -1.01977e-013 3.49861e-014
lhumerus -42.3455 48.4289 50.6884
lradius 15.0428
lwrist -51.5716
lhand -10.935 -5.75879
lfingers 7.12502
lthumb 15.0831 23.6717
rfemur 10.689 15.0613 23.4964
rtibia 12.4451
rfoot -24.9489 -26.8769
rtoes -11.8443
lfemur -2.92514 -18.6995 -16.4225
ltibia 29.7279
lfoot -21.8582 1.69545
ltoes -15.9453
150
root 2.58235 17.6273 17.1706 -5.43751 16.5841 -1.4963
lowerback 8.18015 2.99694 4.45877
upperback 0.176127 4.20954 -5.46771
thorax -3.6652 1.9919 -8.76041
lowerneck 2.89793 -6.96389 -3.69045
upperneck 17.6282 -10.1289 5.71345
head 5.31809 -4.84458 1.98653
rclavicle -2.61153e-014 -7.95139e-015
rhumerus 61.8592 -17.9173 -81.4977
rradius 11.7855
rwrist 47.1999
rhand -8.94207 9.90583
rfingers 7.12502
rthumb 17.0022 -19.3701
lclavicle -2.61153e-014 -7.95139e-015
lhumerus -42.6031 48.6938 50.3712
lradius 15.0028
lwrist -51.9568
lhand -10.9375 -5.8095
lfingers 7.12502
lthumb 15.0807 23.6212
rfemur 10.6767 15.1191 23.5019
rtibia 12.4601
rfoot -24.9002 -26.826
rtoes -11.8661
lfemur -2.87935 -18.6282 -16.4215
ltibia 29.7263
lfoot -21.8758 1.74582
ltoes -15.9456
151
root 2.58425 17.6269 17.1681 -5.44115 16.4502 -1.49661
lowerback 8.17612 2.9784 4.41251
upperback 0.182108 4.18118 -5.43209
thorax -3.66775 1.97849 -8.69147
lowerneck 2.89394 -6.93318 -3.7293
upperneck 17.6974 -10.0888 5.70292
head 5.33966 -4.82674 1.99046
rclavicle -9.44227e-015 -7.95139e-015
rhumerus 60.4968 -16.5109 -78.3104
rradius 12.6014
rwrist 43.6473
rhand -9.25675 9.81185
rfingers 7.12502
rthumb 16.6993 -19.4899
lclavicle -9.44227e-015 -7.95139e-015
lhumerus -42.9077 48.9656 50.0275
lradius 14.9815
lwrist -52.3665
lhand -10.9879 -5.83212
lfingers 7.12502
lthumb 15.0321 23.6022
rfemur 10.6411 15.1588 23.4776
rtibia 12.4817
rfoot -24.8534 -26.7286
rtoes -11.8418
lfemur -2.846 -18.5638 -16.4285
ltibia 29.7235
lfoot -21.892 1.79909
ltoes -15.899
